<svg width="400" height="176" viewBox="0 0 400 176" fill="none" xmlns="http://www.w3.org/2000/svg">
<path d="M92.2901 117.076C92.2901 117.076 92.9662 117.44 93.261 117.492C93.573 117.544 94.1625 117.804 94.1625 117.804L93.9545 117.96C93.9545 117.96 93.3997 118.012 92.9316 118.012C92.4635 118.012 91.926 117.908 91.926 117.908L91.1459 117.717L91.3019 117.249L91.5099 116.798L91.0592 116.694H90.383L90.1056 116.677H48.3232V57.0547H46V119H107.946V116.677H91.9087L92.2901 117.076Z" fill="#00583C"/>
<path d="M91.8573 111.887C91.7533 112.148 91.8574 112.91 91.6666 112.962C91.4933 113.032 91.944 113.725 91.944 113.725L91.84 114.159H107.929V111.835H91.892C91.8747 111.853 91.8747 111.87 91.8573 111.887Z" fill="#00583C"/>
<path d="M51.2007 69.1927C51.2701 69.0887 51.5475 68.7766 51.6862 68.7246C51.7902 68.6899 51.9462 68.3605 52.1369 68.2391C52.345 68.1524 52.4317 67.8924 52.4317 67.8924C52.4317 67.8924 52.1543 67.8404 51.9983 67.9097C51.8422 67.9791 51.6862 67.9964 51.6862 67.9964C51.6862 67.9964 51.5648 67.8404 51.5475 67.719C51.5301 67.615 51.2007 67.667 51.2007 67.667L51.0447 67.4936C51.0447 67.4936 51.0794 67.2683 51.3221 67.1296C51.5475 66.9909 51.2874 66.7828 51.1661 66.8348C51.0447 66.8868 50.698 67.0429 50.8193 66.9562C50.854 66.9389 50.8193 66.9215 50.8193 66.9042V69.5221L50.9754 69.4527C50.958 69.4527 51.1487 69.314 51.2007 69.1927Z" fill="#00583C"/>
<path d="M51.3233 64.871C51.4447 64.819 51.7394 64.819 51.7394 64.819L52.0688 64.6977C52.0688 64.6977 52.1729 64.559 52.5369 64.6803L52.5543 64.3683C52.5543 64.3683 52.8663 63.9695 52.9877 63.8828C53.1091 63.7788 52.7796 63.6054 52.7796 63.6054L52.2595 63.7961L51.7221 63.8308L51.4274 63.6921C51.4274 63.6921 51.3927 63.5188 51.4274 63.3974C51.4447 63.2934 51.7568 63.1027 51.7568 63.1027C51.7568 63.1027 51.7568 62.912 51.7394 62.8079C51.7394 62.7039 51.9128 62.4959 51.9128 62.4959L52.1729 62.5652C52.1729 62.5652 52.1728 62.5652 52.2942 62.3398C52.4156 62.0798 52.5716 62.2185 52.5716 62.2185L52.8317 62.4612L52.953 62.6692L53.1611 62.6346V61.681V61.6637V61.0569C53.057 61.0222 52.953 61.0049 52.953 61.0049C52.953 61.0049 52.8663 60.7275 53.0224 60.6755C53.0744 60.6408 53.1437 60.5888 53.1611 60.5194V57H50.8379V65.4952C50.8726 65.4432 50.8899 65.4085 50.9246 65.3738C51.0806 65.2351 51.1846 64.9231 51.3233 64.871Z" fill="#00583C"/>
<path d="M88.667 114.164C88.6497 114.164 88.6497 114.147 88.6497 114.147C88.5976 113.991 88.4416 113.523 88.4416 113.523C88.4416 113.523 88.6497 112.985 88.459 112.76C88.2856 112.569 88.5283 111.928 88.5283 111.928C88.5283 111.928 88.5283 111.893 88.5283 111.824H53.1259V68.2554C53.0739 68.29 53.0219 68.3421 52.9872 68.3767C52.8658 68.4634 52.5364 68.5154 52.2591 68.6195C51.9817 68.7235 51.7736 69.0876 51.5309 69.2956C51.2708 69.521 51.2882 69.5557 50.9414 69.6423C50.8894 69.6423 50.8547 69.677 50.8027 69.6943V114.164H88.667Z" fill="#00583C"/>
<path d="M87.8 109.363C87.696 109.138 87.592 108.843 87.592 108.756C87.592 108.6 87.6093 108.028 87.8 107.837C87.852 107.751 87.8694 107.387 87.8694 107.04H57.9455V67.702C57.9108 67.6673 57.8761 67.6327 57.8761 67.6327C57.8761 67.6327 57.044 67.2339 56.8879 67.1472C56.7492 67.0432 56.3678 66.8872 56.1771 66.8005C56.0037 66.6965 55.8997 66.6965 55.6917 66.8698C55.6397 66.8872 55.6223 66.9045 55.5876 66.9392L55.5703 109.363H87.8Z" fill="#00583C"/>
<path d="M55.8648 59.1801C55.7088 59.2147 56.0035 59.024 56.1942 58.92C56.3676 58.816 56.4716 59.0587 56.4716 59.0587C56.4716 59.0587 56.749 58.92 56.8703 58.868C56.9917 58.816 57.0264 59.024 57.0264 59.024C57.0784 59.0414 57.1477 59.0761 57.2171 59.0934C57.3384 59.1454 57.3905 59.1974 57.4251 59.2841C57.4598 59.3361 57.4425 59.3881 57.4425 59.4401C57.4425 59.5268 57.4945 59.5615 57.5465 59.5962C57.6332 59.6655 57.7199 59.7349 57.8065 59.8042C57.8586 59.8562 57.8932 59.8562 57.9452 59.8736V57.0303H55.6221V59.3361C55.7088 59.2841 56.0035 59.1627 55.8648 59.1801Z" fill="#00583C"/>
<path d="M107.928 107.034H93.9717C93.989 107.052 94.0237 107.086 94.0237 107.104C94.1624 107.26 94.4051 107.381 94.4744 107.624C94.5438 107.866 94.5438 108.022 94.3531 108.3C94.1104 108.543 93.3649 108.751 93.0528 108.803C92.8448 108.82 92.7581 109.149 92.7061 109.357H107.928V107.034Z" fill="#00583C"/>
<path d="M60.9623 61.2849C60.9623 61.3023 60.9623 61.3023 60.9449 61.3023C60.9969 61.3196 61.1703 61.4063 61.2223 61.389C61.2396 61.389 61.257 61.4063 61.2743 61.4236C61.257 61.4236 61.2396 61.441 61.2396 61.441C61.2917 61.493 61.2917 61.5797 61.361 61.6317C61.4304 61.6664 61.517 61.6837 61.5864 61.7184C61.5691 61.6664 61.6037 61.597 61.6557 61.5797C61.6731 61.5277 61.7078 61.4757 61.7251 61.4236C61.7424 61.337 61.7944 61.2676 61.8118 61.1809C61.8118 61.1462 61.8464 61.0769 61.8638 61.0249C61.8811 60.9729 61.8811 60.9729 61.9331 60.9729C62.1065 60.9729 62.2105 61.1636 62.3666 61.0596C62.4186 61.0249 62.4532 61.0076 62.5573 60.9902C62.6093 60.9729 62.6786 60.9729 62.748 60.9382V57.0547H60.4248V60.9382C60.4942 61.0249 60.5982 61.0769 60.6675 61.1289C60.7715 61.1809 60.8756 61.2156 60.9623 61.2849Z" fill="#00583C"/>
<path d="M107.928 102.233H98.2713C98.1153 102.337 97.9419 102.424 97.9073 102.476C97.8032 102.632 97.7686 103.1 97.7859 103.308C97.8032 103.516 97.8206 103.967 97.8206 103.967C97.8206 103.967 97.7859 104.261 97.6992 104.556H107.928V102.233Z" fill="#00583C"/>
<path d="M62.2794 61.7857C62.4354 61.8031 62.5395 61.7684 62.6261 61.6817C62.6435 61.6817 62.6955 61.6644 62.7302 61.647V61.335C62.6782 61.387 62.6261 61.4563 62.5741 61.4737C62.5048 61.5083 62.4354 61.5083 62.3661 61.5083C62.2794 61.5777 62.1234 61.7337 62.2794 61.7857Z" fill="#00583C"/>
<path d="M87.5393 104.554C87.5046 104.398 87.4873 104.259 87.4873 104.12C87.47 103.774 87.4873 103.462 87.5913 103.046C87.6433 102.889 87.626 102.543 87.5913 102.213H62.7299V80.0912C62.6432 79.9178 62.4872 79.7791 62.4872 79.7791L62.2098 79.6057C62.2098 79.6057 61.8284 79.363 61.759 79.259C61.6897 79.155 61.3949 78.8602 61.3429 78.7909C61.2736 78.6695 61.2909 78.2708 61.2909 78.2708C61.2909 78.2708 61.0309 77.9934 60.9615 77.872C60.9095 77.768 60.6668 77.4733 60.6841 77.3346C60.7015 77.1785 60.7015 76.9011 60.7015 76.9011C60.7015 76.9011 60.7015 76.4157 60.6668 76.277C60.6495 76.1383 60.7015 75.9303 60.7535 75.7395C60.8228 75.5488 60.9268 74.5433 61.1176 74.4046C61.2909 74.2139 61.3429 73.9885 61.3429 73.9885L61.551 73.6938C61.551 73.6938 61.5163 73.2257 61.4123 73.087C61.3083 72.9656 60.9442 72.4282 60.8055 72.3415C60.6668 72.2548 60.5454 71.7 60.4587 71.4399L60.4414 104.502V104.519H87.5393V104.554Z" fill="#00583C"/>
<path d="M65.261 82.8671L66.1625 84.4968V85.0343L65.209 84.1848V99.7535H87.3658C87.3311 99.3547 86.759 99.1987 86.447 99.0427C86.1522 98.8866 85.4241 98.7306 85.1813 98.4705C84.9213 98.2105 84.3665 97.6384 84.2798 97.4303C84.2798 97.413 84.2798 97.413 84.2625 97.413H67.5668V84.3928L66.9947 84.1328L66.7 83.9767L66.7347 83.7167L66.7173 83.4219C66.7173 83.4219 66.3706 83.1445 66.3186 83.0405C66.2492 82.9191 65.8331 82.5551 65.8331 82.5551C65.8331 82.5551 65.4864 82.295 65.417 82.2083C65.365 82.1043 65.313 81.9309 65.261 81.8442C65.261 81.8096 65.2263 81.7922 65.209 81.7749V82.7458C65.2437 82.7805 65.2783 82.8325 65.2783 82.8325L65.261 82.8671Z" fill="#00583C"/>
<path d="M65.6256 61.6419C65.6602 61.6766 65.6256 61.7113 65.6602 61.746C65.6949 61.85 65.903 61.902 66.0243 61.902C66.0763 61.902 66.1283 61.9367 66.163 61.902C66.215 61.902 66.2497 61.8673 66.2844 61.8673C66.3191 61.8673 66.3364 61.9193 66.3537 61.9193C66.3884 61.9367 66.4231 61.9714 66.4751 61.9887C66.5271 62.0407 66.5791 62.0407 66.6138 62.0927C66.6138 62.0754 66.5791 62.0754 66.5791 62.058C66.6138 62.0754 66.6311 62.11 66.6485 62.1274C66.6485 62.11 66.6138 62.1101 66.5964 62.0927C66.6658 62.1967 66.7525 62.2834 66.8912 62.2314C66.9605 62.2314 66.9605 62.1967 67.0125 62.1621C67.0819 62.11 67.0472 62.1621 67.0819 62.2141C67.1339 62.2661 67.2379 62.3181 67.1686 62.3701C67.1512 62.4221 67.0645 62.4221 67.0472 62.4568C66.9779 62.5088 66.9779 62.5608 66.8912 62.5955C66.8218 62.6475 66.7351 62.6475 66.6485 62.6822C66.6658 62.7689 66.6658 62.8209 66.7178 62.8555C66.7525 62.8902 66.7698 62.8902 66.8045 62.9076C66.8392 62.9422 66.8392 62.9596 66.8392 62.9596C66.8912 63.0116 66.8912 63.0116 66.9605 63.0116C67.0472 63.0289 67.0472 63.0463 67.0992 63.0983C67.1859 63.1503 67.3593 63.0983 67.446 63.0809C67.4806 63.0636 67.4806 63.0636 67.498 63.0636V57.0303H65.1748V61.4686C65.1921 61.4686 65.2442 61.4686 65.2788 61.4859C65.4522 61.5033 65.5562 61.5206 65.6256 61.6419Z" fill="#00583C"/>
<path d="M107.929 97.4136H101.93V97.4309C101.93 97.4309 101.913 98.5232 101.757 98.9219C101.687 99.13 101.583 99.4073 101.462 99.7541H107.929V97.4136Z" fill="#00583C"/>
<path d="M107.928 94.9296V92.6064H98.5664L99.4333 92.9185L100.612 93.0572C100.612 93.0572 101.288 93.2306 101.514 93.2653C101.756 93.3346 102.016 93.7334 102.155 93.9587C102.277 94.1668 102.883 94.1148 103.057 94.2188C103.23 94.3228 103.507 94.8256 103.507 94.8256C103.507 94.8256 103.49 94.8776 103.455 94.9643H107.928V94.9296Z" fill="#00583C"/>
<path d="M72.3522 94.9375H82.3904C82.2171 94.7468 82.0784 94.6081 82.009 94.5214C81.8703 94.2961 81.749 93.8973 81.6103 93.7413C81.4889 93.5852 81.5929 93.0305 81.5929 93.0305V92.6144H72.3522V86.6504H72.0055L70.9479 86.4944C70.9479 86.4944 70.6532 85.6448 70.4105 85.4888C70.2891 85.4021 70.1157 85.3328 70.0117 85.2808L70.0291 92.6144V94.9375H72.3522Z" fill="#00583C"/>
<path d="M71.9014 69.0843C72.0054 69.0843 72.1095 69.0843 72.2135 69.1189C72.2482 69.1363 72.3002 69.171 72.3522 69.1883V66.1543C72.3348 66.1716 72.3175 66.189 72.3175 66.2063C72.0748 66.3797 71.9014 66.5877 71.7454 66.8304C71.7454 66.8131 71.7627 66.8131 71.7627 66.7958C71.6934 66.7784 71.6587 66.9171 71.624 66.9518C71.5547 67.0905 71.3813 67.1945 71.2946 67.3679C71.2426 67.5066 71.2773 67.6279 71.1733 67.7666C71.1039 67.888 71.0866 67.9747 71.1039 68.0961C71.1212 68.1654 71.1559 68.2174 71.2599 68.2174C71.312 68.2174 71.364 68.1827 71.416 68.1481C71.4507 68.1134 71.468 68.0787 71.5373 68.0614C71.5373 68.0787 71.52 68.0787 71.52 68.0787C71.5894 68.0961 71.572 68.2001 71.6067 68.2521C71.6414 68.2868 71.7107 68.3214 71.728 68.3908C71.728 68.4081 71.7454 68.5988 71.7801 68.5642C71.7627 68.5988 71.7454 68.6162 71.7454 68.6162C71.8494 68.7029 71.7974 68.8069 71.7627 68.9109C71.6934 69.0323 71.7627 69.0669 71.9014 69.0843Z" fill="#00583C"/>
<path d="M70.1336 63.0013C70.1162 63.0013 70.1162 63.0013 70.0989 63.0013C70.1682 62.9666 70.2029 62.9666 70.2896 63.0013C70.463 63.0707 70.6017 63.1227 70.775 63.2094C70.827 63.2267 70.8964 63.244 70.9657 63.2614C71.0871 63.296 71.1911 63.3481 71.3125 63.296C71.4338 63.2614 71.5032 63.1053 71.6072 63.0187C71.6939 62.9666 71.7806 62.8106 71.9019 62.8106C71.9193 62.8453 71.9019 62.88 71.8673 62.9146C71.8326 63.0013 71.8326 63.088 71.7286 63.14C71.7286 63.14 71.7459 63.14 71.7632 63.14C71.7286 63.1574 71.7286 63.2094 71.7632 63.244C71.8673 63.1574 71.9193 63.3654 71.9193 63.4347C71.9019 63.5214 71.6939 63.6428 71.7806 63.7295C71.6939 63.7815 71.8153 63.8682 71.8673 63.8508C71.9886 63.8335 72.0927 63.7121 72.1447 63.6255C72.214 63.5388 72.266 63.4174 72.318 63.3134C72.318 63.2787 72.3354 63.2787 72.37 63.244V57.0547H70.0469V63.036C70.0469 63.0187 70.0469 63.0187 70.0642 63.0187C70.0642 63.036 70.0989 63.0013 70.1336 63.0013Z" fill="#00583C"/>
<path d="M70.7218 84.0816L70.9819 84.6017L71.606 83.9776C71.606 83.9776 71.8487 83.4401 71.9701 83.2321C72.0394 83.076 72.1781 82.9373 72.3515 82.868V79.7646L72.1261 79.834C72.1261 79.834 71.9007 79.938 71.8661 79.99C71.814 80.0767 71.8314 80.0767 71.71 80.1461C71.5887 80.2328 71.5366 80.2501 71.5366 80.2501L71.2246 80.1981L70.7391 80.1114L70.5484 80.2328C70.5484 80.2328 70.5831 80.1981 70.0283 80.5101V83.9429C70.1497 84.0816 70.3057 84.1683 70.3924 84.1856C70.5484 84.2376 70.7218 84.0816 70.7218 84.0816Z" fill="#00583C"/>
<path d="M90.0537 88.1929L90.7126 88.297L91.3714 88.6957L92.0648 89.1638L92.845 89.2158H93.2784L94.284 89.5279C94.284 89.5279 95.0122 89.8746 95.2722 90.1C95.2722 90.1 95.3069 90.1174 95.3069 90.1347H107.946V87.8115H89.915C90.0017 87.8115 90.0884 87.8462 90.1578 87.8809C90.7126 88.1409 90.0537 88.1929 90.0537 88.1929Z" fill="#00583C"/>
<path d="M82.0614 90.1313C82.1654 89.6459 80.9518 89.4725 80.8824 89.3338C80.8824 89.3338 80.4837 89.2644 80.3797 89.1257C80.2756 89.0044 79.7035 88.5189 79.7035 88.5189C79.4088 88.4496 78.4206 88.6576 78.4206 88.6576L78.2125 88.987C78.2125 88.987 77.6577 88.935 77.4324 88.9177C77.2416 88.883 76.9816 88.675 76.9816 88.675L76.3748 88.6923L76.0627 88.5016L75.4386 88.4149L75.0052 88.2762L74.9011 87.8081L74.8145 87.7388L74.8318 87.7561V90.114H82.0614V90.1313Z" fill="#00583C"/>
<path d="M85.9444 88.0125C86.1178 87.9778 86.2565 87.8218 86.2565 87.8218C86.2738 87.8218 86.3085 87.7871 86.3432 87.7871H85.5977L85.6323 87.8911C85.6323 87.8738 85.7884 88.0298 85.9444 88.0125Z" fill="#00583C"/>
<path d="M80.1707 87.9258L80.5174 88.0298H80.5348L80.9335 88.3072L81.2803 88.3246C81.2803 88.3246 81.9044 87.9952 82.3899 87.7871H79.876L80.1707 87.9258Z" fill="#00583C"/>
<path d="M75.4725 85.4159C75.4725 85.4159 75.7499 85.4679 75.9406 85.4679C76.114 85.4679 75.9926 85.7106 75.9926 85.7106L76.0273 86.2654C76.0273 86.2654 76.0273 86.4908 76.062 86.6815C76.0967 86.8722 75.958 87.375 75.958 87.375C75.958 87.375 76.0967 87.4616 76.2354 87.6177C76.3567 87.791 76.4954 87.8431 76.8248 87.9644C77.1542 88.0858 77.2929 88.2245 77.2929 88.2245C77.2929 88.2245 77.865 88.2245 78.0037 88.2071C78.1598 88.1725 78.4545 87.8604 78.4545 87.8604L79.044 87.791H77.1716V75.4297C77.1369 75.4644 77.0675 75.499 77.0675 75.499C76.9635 75.5337 76.7901 75.6551 76.7381 75.7071C76.6688 75.7244 76.6168 75.8458 76.5994 75.9151C76.5648 75.9671 76.4087 76.0191 76.3394 76.0365C76.2527 76.0712 76.166 76.0712 76.0967 76.1232C76.0273 76.1752 75.9753 76.3139 75.9926 76.4006C75.9926 76.4873 75.9233 76.6433 75.906 76.6606C75.8886 76.7126 75.9926 76.8687 76.01 76.9554C76.0273 77.0594 76.062 77.1114 76.062 77.1114C76.062 77.1114 75.906 77.5275 75.8366 77.5795C75.8019 77.6142 75.6112 77.7702 75.6112 77.7702C75.6112 77.7702 75.2818 78.1516 75.1778 78.221C75.1258 78.2383 74.9351 78.4463 74.8311 78.585V85.2945L74.9697 85.2078L75.4725 85.4159Z" fill="#00583C"/>
<path d="M74.8843 71.6816C74.9016 71.7509 74.9016 71.7509 74.9883 71.7336C75.075 71.6989 75.179 71.6816 75.2657 71.6469C75.4044 71.5429 75.4738 71.4042 75.5951 71.3002C75.7165 71.1788 75.9939 71.0228 75.8552 70.8321C75.8032 70.7627 75.7338 70.7107 75.7165 70.6067C75.6991 70.5373 75.7338 70.468 75.6818 70.416C75.6125 70.2946 75.4738 70.2773 75.4217 70.1559C75.4044 70.1039 75.4217 70.1039 75.4911 70.0346C75.5431 69.9479 75.6298 69.8959 75.7165 69.8265C75.7685 69.8092 75.8378 69.7918 75.8552 69.7572C75.8725 69.7398 75.8552 69.7398 75.8552 69.7225C75.8899 69.6532 75.9419 69.6011 75.9939 69.5665C76.0459 69.5318 76.0979 69.5145 76.1326 69.4624C76.1672 69.3931 76.2193 69.3237 76.2539 69.2544C76.3753 69.1157 76.514 68.873 76.41 68.6996C76.3406 68.6129 76.3059 68.5262 76.2366 68.4569C76.2193 68.4049 76.1672 68.3875 76.1499 68.3355C76.1326 68.2835 76.2193 68.2315 76.2019 68.1622C76.1672 68.1101 76.0459 68.1101 76.0459 68.0755C76.0285 68.0235 76.1846 67.9021 76.2366 67.8848C76.2193 67.8328 76.2366 67.7287 76.3059 67.6767C76.3233 67.6594 76.3579 67.642 76.3926 67.6074C76.4273 67.5554 76.41 67.5033 76.4273 67.4513C76.4273 67.3993 76.462 67.3647 76.4793 67.3126C76.4793 67.2606 76.4446 67.226 76.41 67.1913C76.3059 67.0873 76.2366 67.0179 76.3059 66.8965C76.3579 66.7752 76.4446 66.6712 76.5313 66.5498C76.5833 66.4978 76.618 66.4631 76.6353 66.3764C76.6527 66.3418 76.6527 66.3071 76.67 66.2551C76.7047 66.1857 76.8261 66.2031 76.9127 66.2204C76.9647 66.2377 76.9994 66.2377 77.0341 66.2897C77.0514 66.3071 77.0514 66.3418 77.1035 66.3591C77.1035 66.3591 77.1208 66.3591 77.1381 66.3764V57.0664H74.8149V63.2904C74.8323 63.2731 74.8323 63.2731 74.867 63.2384C74.971 63.1344 74.9883 63.013 75.0403 62.8917C75.075 62.805 75.0923 62.6663 75.127 62.5623C75.1444 62.5103 75.2137 62.4409 75.2484 62.4062C75.2831 62.3716 75.3524 62.3369 75.3871 62.3369C75.4391 62.2502 75.3524 62.2502 75.3177 62.1982C75.3177 62.1288 75.3177 62.1288 75.3524 62.0942C75.3524 62.0422 75.4044 61.9728 75.4911 61.9901C75.5604 61.9901 75.5604 62.0595 75.6125 62.1115C75.6471 62.1462 75.6818 62.1288 75.7338 62.1462C75.7685 62.1809 75.8032 62.2155 75.8552 62.2502C75.9419 62.2849 76.0806 62.3022 76.0806 62.4062C76.0979 62.4929 75.9939 62.5623 75.9419 62.6143C75.8899 62.701 75.8899 62.7877 75.8032 62.8743C75.7685 62.909 75.6645 62.961 75.6645 63.013C75.6645 63.0304 75.7512 63.0824 75.7685 63.0997C75.8032 63.1344 75.9245 63.1691 75.9419 63.2037C75.9592 63.2384 75.8898 63.3251 75.8725 63.3598C75.8378 63.4465 75.7858 63.4811 75.6991 63.5505C75.5951 63.6372 75.6298 63.7759 75.5084 63.8452C75.4217 63.8626 75.283 63.8452 75.2137 63.8105C75.179 63.8105 75.179 63.7759 75.1443 63.7585C75.023 63.6892 74.971 63.8452 74.8843 63.8626C74.8496 63.8626 74.8149 63.8626 74.7803 63.8452V71.5776C74.7976 71.5776 74.8149 71.6122 74.8149 71.6296C74.8843 71.5776 74.8843 71.6469 74.8843 71.6816Z" fill="#00583C"/>
<path d="M107.928 85.3425V82.9847H81.9748V70.6406C81.8534 70.7273 81.7841 70.7967 81.7494 70.8487C81.6454 70.9354 81.3333 71.1607 80.9866 71.2474C80.6225 71.3341 80.1197 71.3341 80.1197 71.3341C80.1197 71.3341 79.8423 71.4035 79.5996 71.4728V72.9291C79.5996 72.9465 79.6343 72.9465 79.6343 72.9465C79.7903 72.9985 79.8943 73.1025 79.9637 73.2065C80.0157 73.2759 80.085 73.3972 80.1717 73.4319C80.2584 73.4666 80.5185 73.2412 80.5185 73.2412L80.7092 73.1198L80.7439 73.2759C80.7439 73.2759 80.7439 73.3452 80.6398 73.3972C80.5532 73.4146 80.5532 73.5013 80.4145 73.6053C80.2758 73.7093 80.1717 73.8133 80.0677 73.848C79.981 73.8827 79.7383 73.8827 79.669 73.9173C79.6516 73.9173 79.6169 73.9173 79.6343 73.9173L79.5996 85.3252L107.928 85.3425Z" fill="#00583C"/>
<path d="M80.1019 67.2072L80.3446 67.1551C80.3446 67.1551 80.3793 67.2938 80.362 67.4672C80.3446 67.6233 80.3793 67.918 80.3966 67.9353C80.414 67.9873 80.466 68.022 80.5353 68.022C80.6393 67.9873 80.7434 68.178 80.8647 68.2301C81.0034 68.2994 81.0554 68.3861 81.0554 68.4901C81.0381 68.5941 80.9514 68.6461 80.9341 68.8542C80.8994 69.0449 81.2115 69.0622 81.3155 69.1142C81.4195 69.1489 81.8529 69.2009 81.8703 69.2356C81.8876 69.2529 81.957 69.3743 81.957 69.4436V57.0303H79.6338V67.97C79.6511 67.866 79.8245 67.5019 79.8592 67.4499C79.9112 67.3979 80.1019 67.2072 80.1019 67.2072Z" fill="#00583C"/>
<path d="M81.1237 70.7319C81.1237 70.7319 81.193 70.5932 81.1757 70.5759C81.1583 70.5239 81.193 70.4545 81.2624 70.4025C81.3144 70.3158 81.4184 70.3332 81.5744 70.3332C81.6438 70.3158 81.7998 70.2465 81.9385 70.1771V69.4663C81.9385 69.4836 81.9385 69.5183 81.9038 69.5183C81.7998 69.5357 81.7998 69.761 81.6438 69.8477C81.5224 69.9344 81.2103 70.0038 81.1063 70.1078C81.0023 70.2291 81.1757 70.3158 81.1757 70.3678C81.1757 70.4025 81.141 70.4372 81.037 70.5585C80.9503 70.6799 81.1237 70.7319 81.1237 70.7319Z" fill="#00583C"/>
<path d="M86.7763 78.1886V57.0547H84.4531V80.5118H107.928V78.1886H86.7763Z" fill="#00583C"/>
<path d="M107.928 75.7094V73.3863H91.579V57.0547H89.2559V75.6748L107.928 75.7094Z" fill="#00583C"/>
<path d="M107.929 70.907V68.5665H96.3823V57.0547H94.0244V70.8724L107.929 70.907Z" fill="#00583C"/>
<path d="M107.927 66.1047V63.7642H101.2V57.0547H98.8252V66.0873L107.927 66.1047Z" fill="#00583C"/>
<path d="M107.928 61.2849V58.9618H106.004V57.0547H103.681V61.2849H107.928Z" fill="#00583C"/>
<path d="M72.3525 65.894V66.1541C72.3872 66.1194 72.4392 66.0674 72.4219 66.0327C72.4045 65.9461 72.3525 65.9287 72.3525 65.894Z" fill="#00583C"/>
<path d="M124.434 116.679V59.3794H133.796V108.634H158.05V116.661H124.434V116.679Z" fill="#00583C"/>
<path d="M203.109 116.644L197.457 100.798H175.803L170.255 116.644H160.494L181.68 59.3794H191.753L212.939 116.644H203.109ZM195.012 92.632L189.707 77.2193C189.326 76.1791 188.788 74.5667 188.095 72.3302C187.419 70.1111 186.933 68.4814 186.673 67.4412C185.98 70.6138 184.957 74.0986 183.605 77.8608L178.49 92.6146H195.012V92.632Z" fill="#00583C"/>
<path d="M224.659 116.679H215.384V59.3794H247.718V67.3025H224.676V85.2117H246.279V93.1694H224.676V116.679H224.659Z" fill="#00583C"/>
<path d="M256.854 116.679V59.3794H266.217V116.679H256.854Z" fill="#00583C"/>
<path d="M311.535 100.78C311.535 105.738 309.75 109.622 306.161 112.448C302.572 115.274 297.648 116.678 291.338 116.678C285.044 116.678 279.878 115.707 275.873 113.748V105.131C278.404 106.328 281.109 107.264 283.969 107.957C286.83 108.651 289.483 108.98 291.945 108.98C295.551 108.98 298.203 108.287 299.92 106.917C301.636 105.547 302.486 103.71 302.486 101.387C302.486 99.306 301.705 97.5377 300.128 96.0813C298.55 94.625 295.308 92.926 290.384 90.9322C285.304 88.8691 281.733 86.5286 279.635 83.876C277.555 81.2408 276.515 78.0507 276.515 74.3406C276.515 69.6943 278.162 66.0361 281.473 63.3662C284.767 60.6963 289.205 59.3613 294.771 59.3613C300.11 59.3613 305.415 60.5229 310.686 62.8634L307.791 70.301C302.832 68.2206 298.429 67.1804 294.545 67.1804C291.598 67.1804 289.361 67.8218 287.836 69.1048C286.31 70.3877 285.547 72.0868 285.547 74.1846C285.547 75.6409 285.859 76.8718 286.466 77.8947C287.073 78.9176 288.078 79.8885 289.483 80.8073C290.887 81.7262 293.401 82.9225 297.024 84.4308C301.116 86.1298 304.115 87.7249 306.005 89.1985C307.912 90.6722 309.299 92.3365 310.201 94.1916C311.102 96.0813 311.535 98.2658 311.535 100.78Z" fill="#00583C"/>
<path d="M353.613 116.679H321.192V59.3794H353.613V67.3025H330.572V82.9059H352.174V90.7422H330.572V108.738H353.613V116.679Z" fill="#00583C"/>
</svg>
